<svg width="200" height="200" viewBox="0 0 200 200" fill="none" xmlns="http://www.w3.org/2000/svg">
<path opacity="0.2" d="M137.789 181.682C140.108 186.695 137.935 192.69 132.717 194.497C116.219 200.209 98.5071 201.502 81.3552 198.247C75.9293 197.217 72.9093 191.601 74.4756 186.305V186.305C76.0419 181.009 81.6035 178.052 87.0536 178.946C99.4999 180.987 112.257 180.056 124.275 176.228C129.538 174.552 135.47 176.67 137.789 181.682V181.682Z" fill="#F69228"/>
<path d="M72.1885 185.595C70.4818 190.848 64.8138 193.768 59.7579 191.545C48.858 186.754 38.8759 180.043 30.2997 171.707C19.3274 161.042 10.949 148.001 5.80947 133.588C0.669979 119.175 -1.09346 103.775 0.654931 88.5738C2.40332 73.3724 7.6169 58.775 15.8943 45.9054C24.1716 33.0359 35.292 22.2375 48.3991 14.3417C61.5062 6.44591 76.2505 1.66333 91.4967 0.362187C106.743 -0.938958 122.084 1.27604 136.34 6.83664C147.482 11.1829 157.729 17.4825 166.61 25.4134C170.729 29.0921 170.422 35.4609 166.351 39.1924V39.1924C162.279 42.9238 155.989 42.5919 151.779 39.0173C145.032 33.2879 137.362 28.7029 129.072 25.4693C117.668 21.0208 105.394 19.2488 93.1974 20.2897C81.0004 21.3307 69.205 25.1567 58.7193 31.4734C48.2336 37.79 39.3373 46.4287 32.7154 56.7243C26.0935 67.02 21.9227 78.6979 20.5239 90.8591C19.1252 103.02 20.536 115.34 24.6476 126.87C28.7592 138.4 35.4619 148.833 44.2398 157.365C50.6204 163.567 57.9736 168.645 65.9856 172.409C70.9844 174.757 73.8951 180.343 72.1885 185.595V185.595Z" fill="#F69228"/>
<path opacity="0.5" d="M168.106 41.1643C172.285 37.5539 178.646 37.9895 181.821 42.5084C188.637 52.2089 193.69 63.0669 196.716 74.5847C200.592 89.3343 201.043 104.775 198.035 119.726C195.027 134.676 188.639 148.741 179.36 160.844C172.114 170.295 163.256 178.354 153.218 184.663C148.542 187.602 142.508 185.544 140.05 180.598V180.598C137.592 175.652 139.654 169.7 144.254 166.645C151.595 161.771 158.099 155.704 163.488 148.675C170.911 138.993 176.022 127.741 178.428 115.781C180.835 103.82 180.474 91.4674 177.373 79.6678C175.122 71.1015 171.47 62.9913 166.586 55.6574C163.525 51.0605 163.926 44.7748 168.106 41.1643V41.1643Z" fill="#F69228"/>
</svg>
