<svg width="345" height="80" viewBox="0 0 345 80" fill="none" xmlns="http://www.w3.org/2000/svg">
<mask id="mask0_3_111" style="mask-type:luminance" maskUnits="userSpaceOnUse" x="0" y="0" width="345" height="81">
<path d="M0.0600586 0.845703H344.795V80.0011H0.0600586V0.845703Z" fill="white"/>
</mask>
<g mask="url(#mask0_3_111)">
<path d="M42.0321 0.869141H302.707C304.084 0.869141 305.456 0.93065 306.824 1.05729C308.193 1.18392 309.55 1.37569 310.899 1.62535C312.244 1.87862 313.578 2.18978 314.893 2.56608C316.207 2.93875 317.502 3.37294 318.771 3.86863C320.043 4.36071 321.284 4.91067 322.495 5.52215C323.709 6.13001 324.885 6.79214 326.029 7.50854C327.17 8.22495 328.273 8.99201 329.337 9.80972C330.397 10.6311 331.415 11.4958 332.386 12.4076C333.361 13.3194 334.283 14.2746 335.154 15.2732C336.025 16.2682 336.842 17.303 337.61 18.3776C338.373 19.4486 339.078 20.5558 339.726 21.6919C340.373 22.8316 340.959 23.9967 341.488 25.1871C342.012 26.3811 342.474 27.5932 342.875 28.827C343.272 30.0644 343.608 31.3127 343.874 32.5791C344.144 33.8454 344.344 35.1191 344.479 36.4035C344.614 37.688 344.683 38.9724 344.683 40.2641C344.683 41.5558 344.614 42.8439 344.479 44.1284C344.344 45.4092 344.144 46.6864 343.874 47.9528C343.608 49.2156 343.272 50.4675 342.875 51.7013C342.474 52.9351 342.012 54.1508 341.488 55.3412C340.959 56.5352 340.373 57.6966 339.726 58.8364C339.078 59.9725 338.373 61.0797 337.61 62.1506C336.842 63.2253 336.025 64.2601 335.154 65.2587C334.283 66.2537 333.361 67.2089 332.386 68.1207C331.415 69.0361 330.397 69.9008 329.337 70.7186C328.273 71.5363 327.17 72.3033 326.029 73.0233C324.885 73.7398 323.709 74.4019 322.495 75.0097C321.284 75.6176 320.043 76.1676 318.771 76.6633C317.502 77.1553 316.207 77.5895 314.893 77.9658C313.578 78.3385 312.244 78.6533 310.899 78.9029C309.55 79.1562 308.193 79.3443 306.824 79.471C305.456 79.5976 304.084 79.6591 302.707 79.6591H42.0321C40.6597 79.6591 39.2874 79.5976 37.9189 79.471C36.5504 79.3443 35.1935 79.1562 33.8443 78.9029C32.4951 78.6533 31.1652 78.3385 29.8506 77.9658C28.5323 77.5895 27.2409 77.1553 25.9726 76.6633C24.7005 76.1676 23.4592 75.6176 22.2488 75.0097C21.0345 74.4019 19.8588 73.7398 18.7139 73.0233C17.5728 72.3033 16.4703 71.5363 15.4064 70.7186C14.3424 69.9008 13.3247 69.0361 12.3533 68.1207C11.3819 67.2089 10.4605 66.2537 9.58934 65.2587C8.71428 64.2601 7.89705 63.2253 7.13378 62.1506C6.37051 61.0797 5.66507 59.9725 5.01745 58.8364C4.36982 57.6966 3.78003 56.5352 3.25576 55.3412C2.7315 54.1508 2.26891 52.9351 1.868 51.7013C1.47095 50.4675 1.13557 49.2156 0.86573 47.9528C0.599742 46.6864 0.399289 45.4092 0.264368 44.1284C0.129446 42.8439 0.0600586 41.5558 0.0600586 40.2641C0.0600586 38.9724 0.129446 37.688 0.264368 36.4035C0.399289 35.1191 0.599742 33.8454 0.86573 32.5791C1.13557 31.3127 1.47095 30.0644 1.868 28.827C2.26891 27.5932 2.7315 26.3811 3.25576 25.1871C3.78003 23.9967 4.36982 22.8316 5.01745 21.6919C5.66507 20.5558 6.37051 19.4486 7.13378 18.3776C7.89705 17.303 8.71428 16.2682 9.58934 15.2732C10.4605 14.2746 11.3819 13.3194 12.3533 12.4076C13.3247 11.4958 14.3424 10.6311 15.4064 9.80972C16.4703 8.99201 17.5728 8.22495 18.7139 7.50854C19.8588 6.79214 21.0345 6.13001 22.2488 5.52215C23.4592 4.91067 24.7005 4.36071 25.9726 3.86863C27.2409 3.37294 28.5323 2.93875 29.8506 2.56608C31.1652 2.18978 32.4951 1.87862 33.8443 1.62535C35.1935 1.37569 36.5504 1.18392 37.9189 1.05729C39.2874 0.93065 40.6597 0.869141 42.0321 0.869141Z" fill="#F69228"/>
</g>
</svg>
