<svg width="345" height="76" viewBox="0 0 345 76" fill="none" xmlns="http://www.w3.org/2000/svg">
<mask id="mask0_3_104" style="mask-type:luminance" maskUnits="userSpaceOnUse" x="0" y="0" width="345" height="76">
<path d="M0.0983887 0H344.51V75.6856H0.0983887V0Z" fill="white"/>
</mask>
<g mask="url(#mask0_3_104)">
<path fill-rule="evenodd" clip-rule="evenodd" d="M40.5515 0H304.183C305.502 0 306.82 0.0615097 308.131 0.18091C309.445 0.30393 310.748 0.48484 312.04 0.727259C313.335 0.966061 314.615 1.26637 315.875 1.62819C317.14 1.98639 318.377 2.40249 319.599 2.87647C320.817 3.35046 322.008 3.87871 323.169 4.46125C324.333 5.04739 325.462 5.68058 326.561 6.37166C327.656 7.05912 328.716 7.79361 329.734 8.57876C330.755 9.36391 331.73 10.1961 332.663 11.0717C333.596 11.9473 334.483 12.8627 335.319 13.8215C336.156 14.7767 336.938 15.7717 337.675 16.7993C338.407 17.8305 339.082 18.8906 339.706 19.9833C340.327 21.076 340.89 22.1941 341.395 23.3374C341.9 24.4808 342.343 25.6458 342.728 26.829C343.11 28.0158 343.43 29.2134 343.688 30.4291C343.943 31.6412 344.139 32.8641 344.267 34.0979C344.398 35.3318 344.463 36.5656 344.459 37.803C344.463 39.0404 344.398 40.2778 344.267 41.508C344.139 42.7418 343.943 43.9648 343.688 45.1769C343.43 46.3926 343.11 47.5938 342.728 48.777C342.343 49.9638 341.9 51.1252 341.395 52.2722C340.89 53.4155 340.327 54.5336 339.706 55.6226C339.082 56.7153 338.407 57.7755 337.675 58.8067C336.938 59.8342 336.156 60.8292 335.319 61.7844C334.483 62.7433 333.596 63.6587 332.663 64.5343C331.73 65.4099 330.755 66.2421 329.734 67.0272C328.716 67.8124 327.656 68.5469 326.561 69.2379C325.462 69.9254 324.333 70.5586 323.169 71.1447C322.008 71.7273 320.817 72.2555 319.599 72.7295C318.377 73.2035 317.14 73.6196 315.875 73.9814C314.615 74.3396 313.335 74.6399 312.04 74.8823C310.748 75.1211 309.445 75.3057 308.131 75.4251C306.82 75.5481 305.502 75.606 304.183 75.606H40.5515C39.2331 75.606 37.9186 75.5481 36.6041 75.4251C35.2896 75.3057 33.9866 75.1211 32.6952 74.8823C31.4 74.6399 30.124 74.3396 28.8596 73.9814C27.5991 73.6196 26.3578 73.2035 25.1397 72.7295C23.9215 72.2555 22.7304 71.7273 21.5662 71.1447C20.402 70.5586 19.2725 69.9254 18.1739 69.2379C17.0791 68.5469 16.019 67.8124 15.0013 67.0272C13.9798 66.2421 13.0045 65.4099 12.0716 64.5343C11.1387 63.6587 10.2559 62.7433 9.41557 61.7844C8.57906 60.8292 7.79652 59.8342 7.06409 58.8067C6.32781 57.7755 5.6532 56.7153 5.02871 55.6226C4.40807 54.5336 3.84526 53.4155 3.34027 52.2722C2.83528 51.1252 2.39197 49.9638 2.01033 48.777C1.62485 47.5938 1.30489 46.3926 1.04661 45.1769C0.792189 43.9648 0.599445 42.7418 0.468379 41.508C0.341168 40.2778 0.275635 39.0404 0.275635 37.803C0.275635 36.5656 0.341168 35.3318 0.468379 34.0979C0.599445 32.8641 0.792189 31.6412 1.04661 30.4291C1.30489 29.2134 1.62485 28.0158 2.01033 26.829C2.39197 25.6458 2.83528 24.4808 3.34027 23.3374C3.84526 22.1941 4.40807 21.076 5.02871 19.9833C5.6532 18.8906 6.32781 17.8305 7.06409 16.7993C7.79652 15.7717 8.57906 14.7767 9.41557 13.8215C10.2559 12.8627 11.1387 11.9473 12.0716 11.0717C13.0045 10.1961 13.9798 9.36391 15.0013 8.57876C16.019 7.79361 17.0791 7.05912 18.1739 6.37166C19.2725 5.68058 20.402 5.04739 21.5662 4.46125C22.7304 3.87871 23.9215 3.35046 25.1397 2.87647C26.3578 2.40249 27.5991 1.98639 28.8596 1.62819C30.124 1.26637 31.4 0.966061 32.6952 0.727259C33.9866 0.48484 35.2896 0.30393 36.6041 0.18091C37.9186 0.0615097 39.2331 0 40.5515 0Z" fill="#F69228"/>
</g>
</svg>
