<svg width="14" height="14" viewBox="0 0 14 14" fill="none" xmlns="http://www.w3.org/2000/svg">
<path d="M5.83337 7.58299C6.34026 8.26064 7.11649 8.68473 7.96059 8.74518C8.80468 8.80564 9.63342 8.49649 10.2317 7.89799L11.9817 6.14799C13.087 5.00355 13.0712 3.18441 11.9462 2.05935C10.8211 0.934294 9.00198 0.918486 7.85754 2.02382L6.85421 3.02132" stroke="white" stroke-width="1.16667" stroke-linecap="round" stroke-linejoin="round"/>
<path d="M8.16678 6.41673C7.65989 5.73907 6.88367 5.31498 6.03957 5.25453C5.19547 5.19408 4.36674 5.50322 3.76845 6.10173L2.01845 7.85173C0.913115 8.99616 0.928923 10.8153 2.05398 11.9404C3.17904 13.0654 4.99818 13.0812 6.14262 11.9759L7.14012 10.9784" stroke="white" stroke-width="1.16667" stroke-linecap="round" stroke-linejoin="round"/>
</svg>
