<svg width="48" height="49" viewBox="0 0 48 49" fill="none" xmlns="http://www.w3.org/2000/svg">
<g style="mix-blend-mode:difference">
<rect y="0.132812" width="48" height="48" rx="20" fill="#F69228"/>
<path d="M24 48.1328C37.2548 48.1328 48 37.3876 48 24.1328C48 10.878 37.2548 0.132812 24 0.132812C10.7452 0.132812 0 10.878 0 24.1328C0 37.3876 10.7452 48.1328 24 48.1328Z" fill="#F69228"/>
<path fill-rule="evenodd" clip-rule="evenodd" d="M27 21C27 22.6569 25.6569 24 24 24C22.3431 24 21 22.6569 21 21C21 19.3431 22.3431 18 24 18C25.6569 18 27 19.3431 27 21ZM25 21C25 21.5523 24.5523 22 24 22C23.4477 22 23 21.5523 23 21C23 20.4477 23.4477 20 24 20C24.5523 20 25 20.4477 25 21Z" fill="white"/>
<path fill-rule="evenodd" clip-rule="evenodd" d="M31 21C31 24.6311 27.3082 29.8445 25.2867 32.4269C24.5247 33.4004 24 34 24 34C24 34 23.4753 33.4004 22.7133 32.4269C20.6918 29.8445 17 24.6311 17 21C17 17.134 20.134 14 24 14C27.866 14 31 17.134 31 21ZM29 21C29 21.8337 28.6937 22.9664 28.0835 24.3175C27.4881 25.6358 26.6763 27.0049 25.8359 28.2656C25.1945 29.2278 24.5507 30.1054 24 30.8224C23.4493 30.1054 22.8055 29.2278 22.1641 28.2656C21.3237 27.0049 20.5119 25.6358 19.9165 24.3175C19.3063 22.9664 19 21.8337 19 21C19 18.2386 21.2386 16 24 16C26.7614 16 29 18.2386 29 21Z" fill="white"/>
</g>
</svg>
