<svg width="49" height="49" viewBox="0 0 49 49" fill="none" xmlns="http://www.w3.org/2000/svg">
<g style="mix-blend-mode:difference">
<rect x="0.5" y="0.200195" width="48" height="48.0001" rx="20" fill="#F69228"/>
<g clip-path="url(#clip0_45_3109)">
<path d="M0.5 24.2002C0.5 10.9454 11.2452 0.200195 24.5 0.200195C37.7548 0.200195 48.5 10.9454 48.5 24.2002C48.5 37.455 37.7548 48.2002 24.5 48.2002C11.2452 48.2002 0.5 37.455 0.5 24.2002Z" fill="#F69228"/>
</g>
<path fill-rule="evenodd" clip-rule="evenodd" d="M19.2352 15H28.7648C29.4966 15 30.1006 15 30.5926 15.0402C31.1035 15.0819 31.5733 15.1715 32.0145 15.3963C32.6987 15.745 33.255 16.3013 33.6036 16.9855C33.8206 17.4112 33.9116 17.8636 33.9552 18.3539C34.0035 18.5018 34.0124 18.6586 33.9835 18.8088C34 19.218 34 19.6913 34 20.2351V27.0375C34 27.7693 34 28.3733 33.9598 28.8653C33.9181 29.3763 33.8284 29.846 33.6036 30.2872C33.255 30.9714 32.6987 31.5277 32.0145 31.8763C31.5733 32.1012 31.1035 32.1908 30.5926 32.2325C30.1006 32.2727 29.4966 32.2727 28.7648 32.2727H19.2352C18.5034 32.2727 17.8994 32.2727 17.4074 32.2325C16.8965 32.1908 16.4267 32.1012 15.9855 31.8763C15.3013 31.5277 14.745 30.9714 14.3964 30.2872C14.1716 29.846 14.082 29.3763 14.0402 28.8653C14 28.3733 14 27.7693 14 27.0375V20.2352C14 19.6913 14 19.218 14.0165 18.8088C13.9876 18.6586 13.9965 18.5018 14.0448 18.3539C14.0884 17.8636 14.1794 17.4112 14.3964 16.9855C14.745 16.3013 15.3013 15.745 15.9855 15.3963C16.4267 15.1715 16.8965 15.0819 17.4074 15.0402C17.8994 15 18.5034 15 19.2352 15ZM15.8182 20.5611V27C15.8182 27.7787 15.8189 28.308 15.8523 28.7172C15.8849 29.1158 15.9439 29.3196 16.0164 29.4618C16.1907 29.8039 16.4688 30.082 16.8109 30.2563C16.9531 30.3288 17.1569 30.3878 17.5555 30.4204C17.9647 30.4538 18.494 30.4545 19.2727 30.4545H28.7273C29.506 30.4545 30.0353 30.4538 30.4445 30.4204C30.8431 30.3878 31.0469 30.3288 31.1891 30.2563C31.5312 30.082 31.8093 29.8039 31.9836 29.4618C32.0561 29.3196 32.1151 29.1158 32.1477 28.7172C32.1811 28.308 32.1818 27.7787 32.1818 27V20.5611L26.2457 25.4434C26.2276 25.4583 26.2088 25.4726 26.1896 25.486C26.1543 25.5107 26.1194 25.5353 26.0847 25.5596C25.5896 25.9073 25.1548 26.2126 24.6596 26.336C24.2265 26.444 23.7735 26.444 23.3404 26.336C22.8452 26.2126 22.4104 25.9073 21.9153 25.5596C21.8806 25.5353 21.8457 25.5107 21.8104 25.486C21.7912 25.4726 21.7724 25.4583 21.7543 25.4434L15.8182 20.5611ZM32.1142 18.2626C32.0809 18.0472 32.0357 17.9131 31.9836 17.8109C31.8093 17.4688 31.5312 17.1907 31.1891 17.0163C31.0469 16.9439 30.8431 16.8849 30.4445 16.8523C30.0353 16.8189 29.506 16.8182 28.7273 16.8182H19.2727C18.494 16.8182 17.9647 16.8189 17.5555 16.8523C17.1569 16.8849 16.9531 16.9439 16.8109 17.0163C16.4688 17.1907 16.1907 17.4688 16.0164 17.8109C15.9643 17.9131 15.9191 18.0472 15.8858 18.2626L22.8819 24.0167C23.5199 24.4628 23.658 24.5413 23.7801 24.5718C23.9245 24.6078 24.0755 24.6078 24.2199 24.5718C24.342 24.5413 24.4801 24.4628 25.1181 24.0167L32.1142 18.2626Z" fill="white"/>
</g>
<defs>
<clipPath id="clip0_45_3109">
<rect width="48" height="48.0001" fill="white" transform="translate(0.5 0.200195)"/>
</clipPath>
</defs>
</svg>
