<svg width="72" height="50" viewBox="0 0 72 50" fill="none" xmlns="http://www.w3.org/2000/svg">
<path d="M35.291 33.824L30 35L31.176 29.709C30.4015 28.2604 29.9975 26.6426 30 25C30 19.477 34.477 15 40 15C45.523 15 50 19.477 50 25C50 30.523 45.523 35 40 35C38.3574 35.0025 36.7396 34.5985 35.291 33.824V33.824ZM35.581 31.711L36.234 32.061C37.3926 32.6801 38.6864 33.0027 40 33C41.5823 33 43.129 32.5308 44.4446 31.6518C45.7602 30.7727 46.7855 29.5233 47.391 28.0615C47.9965 26.5997 48.155 24.9911 47.8463 23.4393C47.5376 21.8874 46.7757 20.462 45.6569 19.3431C44.538 18.2243 43.1126 17.4624 41.5607 17.1537C40.0089 16.845 38.4004 17.0035 36.9385 17.609C35.4767 18.2145 34.2273 19.2398 33.3483 20.5554C32.4692 21.871 32 23.4177 32 25C32 26.334 32.325 27.618 32.94 28.766L33.289 29.419L32.634 32.366L35.581 31.711V31.711Z" fill="#F69228"/>
</svg>
