<svg width="23" height="24" viewBox="0 0 23 24" fill="none" xmlns="http://www.w3.org/2000/svg">
<path fill-rule="evenodd" clip-rule="evenodd" d="M11.2671 20.8565C13.6384 20.8565 15.9126 19.9145 17.5893 18.2377C19.2661 16.561 20.208 14.2868 20.208 11.9155C20.208 9.54426 19.2661 7.2701 17.5893 5.59335C15.9126 3.9166 13.6384 2.97461 11.2671 2.97461C8.89582 2.97461 6.62166 3.9166 4.94491 5.59335C3.26816 7.2701 2.32617 9.54426 2.32617 11.9155C2.32617 14.2868 3.26816 16.561 4.94491 18.2377C6.62166 19.9145 8.89582 20.8565 11.2671 20.8565V20.8565ZM15.4101 10.4705C15.6137 10.2597 15.7263 9.97737 15.7238 9.68433C15.7213 9.3913 15.6037 9.11099 15.3965 8.90377C15.1893 8.69656 14.909 8.57902 14.6159 8.57647C14.3229 8.57392 14.0406 8.68657 13.8298 8.89016L10.1495 12.5705L8.70441 11.1254C8.49363 10.9218 8.21132 10.8092 7.91828 10.8117C7.62524 10.8143 7.34493 10.9318 7.13772 11.139C6.9305 11.3462 6.81296 11.6265 6.81042 11.9196C6.80787 12.2126 6.92052 12.4949 7.1241 12.7057L9.35934 14.9409C9.56892 15.1505 9.85314 15.2682 10.1495 15.2682C10.4458 15.2682 10.7301 15.1505 10.9396 14.9409L15.4101 10.4705V10.4705Z" fill="#2E964B"/>
</svg>
