<svg width="23" height="24" viewBox="0 0 23 24" fill="none" xmlns="http://www.w3.org/2000/svg">
<path d="M12.1985 15.7423H11.2671V12.0169H10.3358M11.2671 8.2915H11.2765M19.6493 12.0169C19.6493 13.1177 19.4325 14.2076 19.0112 15.2246C18.59 16.2416 17.9726 17.1656 17.1942 17.944C16.4158 18.7223 15.4918 19.3397 14.4748 19.761C13.4579 20.1822 12.3679 20.399 11.2671 20.399C10.1664 20.399 9.0764 20.1822 8.05944 19.761C7.04247 19.3397 6.11843 18.7223 5.34008 17.944C4.56173 17.1656 3.9443 16.2416 3.52306 15.2246C3.10182 14.2076 2.88501 13.1177 2.88501 12.0169C2.88501 9.79382 3.76812 7.66179 5.34008 6.08983C6.91203 4.51788 9.04406 3.63477 11.2671 3.63477C13.4902 3.63477 15.6222 4.51788 17.1942 6.08983C18.7662 7.66179 19.6493 9.79382 19.6493 12.0169Z" stroke="black" stroke-width="2.12879" stroke-linecap="round" stroke-linejoin="round"/>
</svg>
