<svg width="26" height="26" viewBox="0 0 26 26" fill="none" xmlns="http://www.w3.org/2000/svg">
<path d="M19.0443 17.8887L14.5281 22.4049C14.3305 22.6026 14.096 22.7595 13.8379 22.8665C13.5797 22.9735 13.303 23.0286 13.0235 23.0286C12.7441 23.0286 12.4674 22.9735 12.2092 22.8665C11.951 22.7595 11.7165 22.6026 11.519 22.4049L7.0017 17.8887C5.81087 16.6978 4.99993 15.1806 4.6714 13.5288C4.34288 11.877 4.51153 10.1649 5.15604 8.609C5.80054 7.05308 6.89196 5.72322 8.29226 4.78757C9.69257 3.85193 11.3389 3.35254 13.023 3.35254C14.7071 3.35254 16.3534 3.85193 17.7537 4.78757C19.154 5.72322 20.2454 7.05308 20.89 8.609C21.5345 10.1649 21.7031 11.877 21.3746 13.5288C21.0461 15.1806 20.2351 16.6978 19.0443 17.8887V17.8887Z" stroke="black" stroke-width="3.19319" stroke-linecap="round" stroke-linejoin="round"/>
<path d="M15.281 14.1249C15.8798 13.5261 16.2162 12.7139 16.2162 11.867C16.2162 11.0201 15.8798 10.2079 15.281 9.60909C14.6821 9.01025 13.8699 8.67383 13.023 8.67383C12.1761 8.67383 11.3639 9.01025 10.7651 9.60909C10.1663 10.2079 9.82983 11.0201 9.82983 11.867C9.82983 12.7139 10.1663 13.5261 10.7651 14.1249C11.3639 14.7238 12.1761 15.0602 13.023 15.0602C13.8699 15.0602 14.6821 14.7238 15.281 14.1249Z" stroke="black" stroke-width="3.19319" stroke-linecap="round" stroke-linejoin="round"/>
</svg>
