<svg width="26" height="26" viewBox="0 0 26 26" fill="none" xmlns="http://www.w3.org/2000/svg">
<path d="M19.0443 17.7412L14.5281 22.2575C14.3305 22.4552 14.096 22.612 13.8379 22.719C13.5797 22.826 13.303 22.8811 13.0235 22.8811C12.7441 22.8811 12.4674 22.826 12.2092 22.719C11.951 22.612 11.7165 22.4552 11.519 22.2575L7.0017 17.7412C5.81087 16.5504 4.99993 15.0331 4.6714 13.3813C4.34288 11.7296 4.51153 10.0175 5.15604 8.46154C5.80054 6.90562 6.89196 5.57575 8.29226 4.64011C9.69257 3.70447 11.3389 3.20508 13.023 3.20508C14.7071 3.20508 16.3534 3.70447 17.7537 4.64011C19.154 5.57575 20.2454 6.90562 20.89 8.46154C21.5345 10.0175 21.7031 11.7296 21.3746 13.3813C21.0461 15.0331 20.2351 16.5504 19.0443 17.7412V17.7412Z" stroke="white" stroke-width="3.19319" stroke-linecap="round" stroke-linejoin="round"/>
<path d="M15.281 13.9775C15.8798 13.3786 16.2162 12.5664 16.2162 11.7196C16.2162 10.8727 15.8798 10.0605 15.281 9.46163C14.6821 8.86279 13.8699 8.52637 13.023 8.52637C12.1761 8.52637 11.3639 8.86279 10.7651 9.46163C10.1663 10.0605 9.82983 10.8727 9.82983 11.7196C9.82983 12.5664 10.1663 13.3786 10.7651 13.9775C11.3639 14.5763 12.1761 14.9127 13.023 14.9127C13.8699 14.9127 14.6821 14.5763 15.281 13.9775Z" stroke="white" stroke-width="3.19319" stroke-linecap="round" stroke-linejoin="round"/>
</svg>
