<svg width="26" height="26" viewBox="0 0 26 26" fill="none" xmlns="http://www.w3.org/2000/svg">
<path d="M8.83322 7.61013V3.35254M17.3484 7.61013V3.35254M7.76882 11.8677H18.4128M5.64003 22.5117H20.5416C21.1062 22.5117 21.6476 22.2874 22.0469 21.8882C22.4461 21.489 22.6704 20.9475 22.6704 20.3829V7.61013C22.6704 7.04554 22.4461 6.50407 22.0469 6.10484C21.6476 5.70562 21.1062 5.48133 20.5416 5.48133H5.64003C5.07543 5.48133 4.53397 5.70562 4.13474 6.10484C3.73551 6.50407 3.51123 7.04554 3.51123 7.61013V20.3829C3.51123 20.9475 3.73551 21.489 4.13474 21.8882C4.53397 22.2874 5.07543 22.5117 5.64003 22.5117Z" stroke="white" stroke-width="2.66099" stroke-linecap="round" stroke-linejoin="round"/>
</svg>
