<svg width="24" height="24" viewBox="0 0 24 24" fill="none" xmlns="http://www.w3.org/2000/svg">
<path fill-rule="evenodd" clip-rule="evenodd" d="M13.0606 2.70696C13.4511 2.31643 14.0843 2.31643 14.4748 2.70696L21.5459 9.77802C21.9364 10.1685 21.9364 10.8017 21.5459 11.1922C21.1554 11.5828 20.5222 11.5828 20.1317 11.1922L19.58 10.6406L15.0545 17.4288L15.889 18.2633C16.2796 18.6538 16.2796 19.287 15.889 19.6775C15.4985 20.068 14.8654 20.068 14.4748 19.6775L10.2244 15.427C10.195 15.4667 10.1624 15.5047 10.1265 15.5406L4.12129 21.5458C3.73077 21.9363 3.0976 21.9363 2.70708 21.5458C2.31655 21.1553 2.31655 20.5221 2.70708 20.1316L8.71228 14.1264C8.74821 14.0905 8.78618 14.0578 8.82584 14.0285L4.57533 9.77803C4.18481 9.38751 4.18481 8.75434 4.57533 8.36382C4.96586 7.97329 5.59902 7.97329 5.98955 8.36382L6.82407 9.19834L13.6123 4.67285L13.0606 4.12117C12.6701 3.73064 12.6701 3.09748 13.0606 2.70696ZM8.2663 10.6406L13.6123 15.9866L15.3182 13.4277C15.2703 13.3944 15.2247 13.3563 15.1819 13.3136L10.9393 9.07094C10.8966 9.02821 10.8585 8.98258 10.8251 8.93467L8.2663 10.6406ZM18.1378 9.19834L16.4407 11.7439L12.5089 7.81214L15.0545 6.11507L18.1378 9.19834Z" fill="white"/>
</svg>
