<svg width="334" height="68" viewBox="0 0 334 68" fill="none" xmlns="http://www.w3.org/2000/svg">
<path d="M36.3276 0H297.676C307.665 0 316.747 3.82554 323.332 9.98831C329.916 16.1511 334 24.6511 334 34C334 43.3489 329.916 51.8525 323.332 58.0117C316.747 64.1745 307.665 68 297.676 68H36.3276C26.3348 68 17.2529 64.1745 10.6682 58.0117C4.08743 51.8525 0 43.3489 0 34C0 24.6511 4.08743 16.1511 10.6682 9.98831C17.2529 3.82554 26.3348 0 36.3276 0ZM297.676 1.98683H36.3276C26.9215 1.98683 18.3684 5.5884 12.1697 11.3935C5.97097 17.1951 2.12284 25.1966 2.12284 34C2.12284 42.8034 5.97097 50.8049 12.1697 56.6101C18.3684 62.4116 26.9215 66.0132 36.3276 66.0132H297.676C307.079 66.0132 315.632 62.4116 321.83 56.6101C328.033 50.8049 331.881 42.8034 331.881 34C331.881 25.1966 328.029 17.1951 321.83 11.3935C315.632 5.5884 307.079 1.98683 297.676 1.98683Z" fill="white"/>
</svg>
