<svg width="334" height="69" viewBox="0 0 334 69" fill="none" xmlns="http://www.w3.org/2000/svg">
<path d="M297.564 68.9993H36.8605C35.6538 69.0066 34.451 68.9558 33.252 68.8505C32.053 68.7453 30.8617 68.5856 29.6781 68.3714C28.4984 68.1537 27.3302 67.8851 26.1736 67.5621C25.0209 67.2354 23.8836 66.858 22.7694 66.4297C21.6552 66.0014 20.5642 65.5223 19.5001 64.9888C18.436 64.4589 17.4028 63.8819 16.3966 63.254C15.3942 62.6261 14.4265 61.9546 13.4897 61.2396C12.5567 60.521 11.6623 59.7661 10.8103 58.964C9.95438 58.1655 9.14477 57.3271 8.37757 56.4525C7.61036 55.5778 6.89327 54.6704 6.22245 53.7304C5.55163 52.7868 4.93093 51.8177 4.36034 50.816C3.78976 49.8179 3.27315 48.7944 2.81051 47.7491C2.34788 46.7002 1.94307 45.6368 1.59224 44.5516C1.24141 43.4664 0.948403 42.3667 0.709375 41.2561C0.474201 40.1419 0.296858 39.0241 0.177344 37.8953C0.0616853 36.7666 0 35.6342 0 34.5018C0 33.3658 0.0616853 32.2334 0.177344 31.1047C0.296858 29.9759 0.474201 28.8581 0.709375 27.7439C0.948403 26.6333 1.24141 25.5336 1.59224 24.4484C1.94307 23.3632 2.34788 22.2998 2.81051 21.2509C3.27315 20.2056 3.78976 19.1821 4.36034 18.184C4.93093 17.1823 5.55163 16.2132 6.22245 15.2696C6.89327 14.3296 7.61036 13.4222 8.37757 12.5475C9.14477 11.6729 9.95438 10.8345 10.8103 10.036C11.6623 9.23389 12.5567 8.47897 13.4897 7.76035C14.4265 7.04536 15.3942 6.37392 16.3966 5.74603C17.4028 5.11814 18.436 4.54107 19.5001 4.01118C20.5642 3.47765 21.6552 2.99857 22.7694 2.5703C23.8836 2.14203 25.0209 1.76457 26.1736 1.43793C27.3302 1.11491 28.4984 0.846333 29.6781 0.628569C30.8617 0.414434 32.053 0.25474 33.252 0.149487C34.451 0.0442346 35.6538 -0.0065778 36.8605 0.000681476H297.564C298.759 0.00793982 299.95 0.0696402 301.141 0.185781C302.329 0.301922 303.508 0.472504 304.68 0.697527C305.852 0.92255 307.009 1.20201 308.154 1.53229C309.295 1.8662 310.417 2.24728 311.52 2.68281C312.626 3.11834 313.702 3.60468 314.754 4.1382C315.807 4.67173 316.828 5.25606 317.819 5.88395C318.814 6.51184 319.77 7.18691 320.691 7.9019C321.613 8.62052 322.496 9.37544 323.34 10.1739C324.181 10.9724 324.982 11.8071 325.738 12.6818C326.494 13.5529 327.203 14.4566 327.866 15.3966C328.529 16.333 329.138 17.2984 329.701 18.2929C330.264 19.2873 330.773 20.3036 331.228 21.3452C331.687 22.3832 332.088 23.443 332.431 24.5209C332.778 25.5989 333.067 26.6913 333.298 27.7947C333.534 28.898 333.707 30.0086 333.823 31.1301C333.938 32.2516 334 33.3731 334 34.5018C334 35.6269 333.938 36.7484 333.823 37.8699C333.707 38.9878 333.534 40.102 333.298 41.2053C333.067 42.3087 332.778 43.4011 332.431 44.479C332.088 45.557 331.687 46.6168 331.228 47.6548C330.773 48.6964 330.264 49.7127 329.701 50.7071C329.138 51.7016 328.529 52.667 327.866 53.6034C327.203 54.5434 326.494 55.4471 325.738 56.3182C324.982 57.1929 324.181 58.0276 323.34 58.8261C322.496 59.6246 321.613 60.3795 320.691 61.0981C319.77 61.8131 318.814 62.4882 317.819 63.1161C316.828 63.7439 315.807 64.3283 314.754 64.8618C313.702 65.3953 312.626 65.8817 311.52 66.3172C310.417 66.7527 309.295 67.1338 308.154 67.4677C307.009 67.798 305.852 68.0774 304.68 68.3025C303.508 68.5275 302.329 68.6981 301.141 68.8142C299.95 68.9304 298.759 68.9921 297.564 68.9993ZM36.8605 2.27995C35.7348 2.27632 34.6129 2.31987 33.491 2.41787C32.3691 2.51586 31.2588 2.66467 30.1523 2.86791C29.0497 3.06753 27.9586 3.32159 26.8791 3.62283C25.7997 3.92407 24.7433 4.27612 23.6985 4.67899C22.6576 5.07822 21.6398 5.52827 20.6451 6.02187C19.6505 6.5191 18.6866 7.05988 17.7498 7.64421C16.8091 8.22854 15.907 8.85643 15.0318 9.52424C14.1605 10.1957 13.3278 10.9034 12.5297 11.6511C11.7317 12.3951 10.9722 13.1791 10.259 13.9957C9.54187 14.8123 8.87104 15.6616 8.24263 16.5399C7.61422 17.4182 7.03592 18.3256 6.50389 19.2583C5.97186 20.1911 5.48995 21.1456 5.05815 22.1255C4.62636 23.1019 4.24468 24.0999 3.91698 25.1125C3.58928 26.1251 3.31556 27.1523 3.09581 28.1903C2.87605 29.2283 2.71028 30.2736 2.59847 31.3297C2.48667 32.3822 2.43269 33.4384 2.43269 34.4982C2.43269 35.558 2.48667 36.6141 2.59847 37.6703C2.71028 38.7228 2.87605 39.7681 3.09581 40.8061C3.31556 41.8477 3.58928 42.8712 3.91698 43.8838C4.24468 44.9001 4.62636 45.8945 5.05815 46.8708C5.48995 47.8508 5.97186 48.8053 6.50389 49.7381C7.03592 50.6708 7.61422 51.5782 8.24263 52.4565C8.87104 53.3384 9.54187 54.1841 10.259 55.0007C10.9722 55.8209 11.7317 56.6013 12.5297 57.3489C13.3278 58.0966 14.1605 58.8043 15.0318 59.4721C15.907 60.1399 16.8091 60.7678 17.7498 61.3522C18.6866 61.9401 19.6505 62.4773 20.6451 62.9745C21.6398 63.4717 22.6576 63.9181 23.6985 64.3174C24.7433 64.7202 25.7997 65.0723 26.8791 65.3735C27.9586 65.6784 29.0497 65.9288 30.1523 66.1285C31.2588 66.3317 32.3691 66.4805 33.491 66.5785C34.6129 66.6765 35.7348 66.7237 36.8605 66.7164H297.564C298.689 66.7237 299.811 66.6765 300.929 66.5785C302.051 66.4805 303.161 66.3317 304.268 66.1285C305.371 65.9288 306.465 65.6784 307.541 65.3735C308.621 65.0723 309.681 64.7202 310.722 64.3174C311.763 63.9181 312.78 63.4717 313.775 62.9745C314.77 62.4773 315.737 61.9401 316.674 61.3522C317.611 60.7678 318.517 60.1399 319.388 59.4721C320.26 58.8043 321.096 58.0966 321.894 57.3489C322.692 56.6013 323.448 55.8209 324.165 55.0007C324.878 54.1841 325.553 53.3384 326.178 52.4565C326.806 51.5782 327.384 50.6708 327.916 49.7381C328.452 48.8053 328.934 47.8508 329.366 46.8708C329.798 45.8945 330.176 44.9001 330.503 43.8838C330.831 42.8712 331.105 41.8477 331.328 40.8061C331.548 39.7681 331.714 38.7228 331.822 37.6703C331.934 36.6141 331.988 35.558 331.988 34.4982C331.988 33.4384 331.934 32.3822 331.822 31.3297C331.714 30.2736 331.548 29.2283 331.328 28.1903C331.105 27.1523 330.831 26.1251 330.503 25.1125C330.176 24.0999 329.798 23.1019 329.366 22.1255C328.934 21.1456 328.452 20.1911 327.916 19.2583C327.384 18.3256 326.806 17.4182 326.178 16.5399C325.553 15.6616 324.878 14.8123 324.165 13.9957C323.448 13.1791 322.692 12.3951 321.894 11.6511C321.096 10.9034 320.26 10.1957 319.388 9.52424C318.517 8.85643 317.611 8.22854 316.674 7.64421C315.737 7.05988 314.77 6.5191 313.775 6.02187C312.78 5.52827 311.763 5.07822 310.722 4.67899C309.681 4.27612 308.621 3.92407 307.541 3.62283C306.465 3.32159 305.371 3.06753 304.268 2.86791C303.161 2.66467 302.051 2.51586 300.929 2.41787C299.811 2.31987 298.689 2.27632 297.564 2.27995H36.8605Z" fill="white"/>
</svg>
